<?xml version="1.0" encoding="utf-8"?>
<!-- Generator: Adobe Illustrator 27.5.0, SVG Export Plug-In . SVG Version: 6.00 Build 0)  -->
<svg version="1.1" id="Layer_1" xmlns="http://www.w3.org/2000/svg" xmlns:xlink="http://www.w3.org/1999/xlink" x="0px" y="0px"
	 viewBox="0 0 25 25" style="enable-background:new 0 0 25 25;" xml:space="preserve">
<g>
	<rect style="fill:#FFFFFF;" width="25" height="25"/>
	
		<radialGradient id="SVGID_1_" cx="960.2036" cy="-7103.1694" r="5.7868" gradientTransform="matrix(1.9368 0 0 0.262 -1847.2224 1879.8287)" gradientUnits="userSpaceOnUse">
		<stop  offset="0" style="stop-color:#000000"/>
		<stop  offset="0.0074" style="stop-color:#090909"/>
		<stop  offset="0.0477" style="stop-color:#373737"/>
		<stop  offset="0.0931" style="stop-color:#626262"/>
		<stop  offset="0.1419" style="stop-color:#888888"/>
		<stop  offset="0.195" style="stop-color:#A8A8A8"/>
		<stop  offset="0.2537" style="stop-color:#C4C4C4"/>
		<stop  offset="0.32" style="stop-color:#DADADA"/>
		<stop  offset="0.3974" style="stop-color:#EBEBEB"/>
		<stop  offset="0.4931" style="stop-color:#F6F6F6"/>
		<stop  offset="0.6274" style="stop-color:#FDFDFD"/>
		<stop  offset="1" style="stop-color:#FFFFFF"/>
	</radialGradient>
	<path style="opacity:0.25;fill:url(#SVGID_1_);" d="M23.708,18.799c0,0.838-5.018,1.516-11.208,1.516
		c-6.19,0-11.208-0.678-11.208-1.516c0-0.836,5.018-1.517,11.208-1.517C18.69,17.282,23.708,17.963,23.708,18.799z"/>
	<g>
		<g>
			<g>
				<g>
					
						<linearGradient id="SVGID_00000092453802488499372160000012974766871089074350_" gradientUnits="userSpaceOnUse" x1="-22.5475" y1="-67.3823" x2="-18.75" y2="-56.3199" gradientTransform="matrix(0.7071 0.7071 -0.7071 0.7071 -14.9438 69.0807)">
						<stop  offset="0" style="stop-color:#FFD973"/>
						<stop  offset="0.3075" style="stop-color:#FF8273"/>
						<stop  offset="0.7785" style="stop-color:#870073"/>
						<stop  offset="0.9695" style="stop-color:#8A0073"/>
						<stop  offset="1" style="stop-color:#8B0073"/>
					</linearGradient>
					<path style="fill:url(#SVGID_00000092453802488499372160000012974766871089074350_);" d="M13.089,8.696
						c-1.095,1.095-1.493,2.617-1.202,4.027c1.41,0.291,2.934-0.107,4.027-1.201c1.094-1.095,1.493-2.618,1.202-4.028
						C15.706,7.203,14.183,7.603,13.089,8.696z"/>
					
						<linearGradient id="SVGID_00000018917497703169374540000005261615746912999560_" gradientUnits="userSpaceOnUse" x1="-24.5698" y1="-62.6107" x2="-20.0766" y2="-62.5003" gradientTransform="matrix(0.7071 0.7071 -0.7071 0.7071 -14.9438 69.0807)">
						<stop  offset="0" style="stop-color:#FFD973"/>
						<stop  offset="0.3075" style="stop-color:#FF8273"/>
						<stop  offset="0.7785" style="stop-color:#870073"/>
						<stop  offset="0.9695" style="stop-color:#8A0073"/>
						<stop  offset="1" style="stop-color:#8B0073"/>
					</linearGradient>
					<path style="opacity:0.5;fill:url(#SVGID_00000018917497703169374540000005261615746912999560_);" d="M17.068,7.487
						c-1.396-0.272-2.898,0.127-3.979,1.209c-1.081,1.081-1.481,2.583-1.208,3.981L17.068,7.487z"/>
				</g>
				<g style="opacity:0.8;">
					
						<linearGradient id="SVGID_00000134237725624774005770000002709204470283899811_" gradientUnits="userSpaceOnUse" x1="9.108" y1="-23.8623" x2="12.9056" y2="-12.7999" gradientTransform="matrix(0.9659 0.2588 -0.2588 0.9659 -2.4831 24.7158)">
						<stop  offset="0" style="stop-color:#A0FFFF"/>
						<stop  offset="0.3075" style="stop-color:#23C0FF"/>
						<stop  offset="0.7785" style="stop-color:#2300FF"/>
						<stop  offset="0.9695" style="stop-color:#2300FF"/>
						<stop  offset="1" style="stop-color:#2300FF"/>
					</linearGradient>
					<path style="fill:url(#SVGID_00000134237725624774005770000002709204470283899811_);" d="M10.914,8.635
						c-0.4,1.494,0.016,3.013,0.973,4.089c1.367-0.453,2.487-1.561,2.887-3.055c0.4-1.493-0.016-3.013-0.973-4.089
						C12.434,6.033,11.314,7.141,10.914,8.635z"/>
					
						<linearGradient id="SVGID_00000065059716527207746520000007628306682999300271_" gradientUnits="userSpaceOnUse" x1="7.0866" y1="-19.091" x2="11.5776" y2="-18.9806" gradientTransform="matrix(0.9659 0.2588 -0.2588 0.9659 -2.4831 24.7158)">
						<stop  offset="0" style="stop-color:#A0FFFF"/>
						<stop  offset="0.3075" style="stop-color:#23C0FF"/>
						<stop  offset="0.7785" style="stop-color:#2300FF"/>
						<stop  offset="0.9695" style="stop-color:#2300FF"/>
						<stop  offset="1" style="stop-color:#2300FF"/>
					</linearGradient>
					<path style="opacity:0.5;fill:url(#SVGID_00000065059716527207746520000007628306682999300271_);" d="M13.756,5.598
						c-1.346,0.463-2.445,1.561-2.842,3.037c-0.396,1.479,0.008,2.978,0.943,4.051L13.756,5.598z"/>
				</g>
				<g>
					
						<linearGradient id="SVGID_00000075866512467436355880000001799074675708047003_" gradientUnits="userSpaceOnUse" x1="15.0233" y1="29.2018" x2="18.8208" y2="40.2643" gradientTransform="matrix(0.9659 -0.2588 0.2588 0.9659 -14.0088 -19.4299)">
						<stop  offset="0" style="stop-color:#23FFFF"/>
						<stop  offset="0.3075" style="stop-color:#23C0FF"/>
						<stop  offset="0.7785" style="stop-color:#2300B7"/>
						<stop  offset="0.9207" style="stop-color:#2300BA"/>
						<stop  offset="1" style="stop-color:#2300C1"/>
					</linearGradient>
					<path style="fill:url(#SVGID_00000075866512467436355880000001799074675708047003_);" d="M9,9.669
						c0.4,1.494,1.519,2.602,2.887,3.055c0.957-1.075,1.372-2.595,0.973-4.089c-0.4-1.494-1.52-2.602-2.887-3.055
						C9.016,6.656,8.6,8.176,9,9.669z"/>
					
						<linearGradient id="SVGID_00000101789381875990897600000004454799831478400691_" gradientUnits="userSpaceOnUse" x1="13.0021" y1="33.9733" x2="17.4921" y2="34.0837" gradientTransform="matrix(0.9659 -0.2588 0.2588 0.9659 -14.0088 -19.4299)">
						<stop  offset="0" style="stop-color:#23FFFF"/>
						<stop  offset="0.3075" style="stop-color:#23C0FF"/>
						<stop  offset="0.7785" style="stop-color:#2300B7"/>
						<stop  offset="0.9207" style="stop-color:#2300BA"/>
						<stop  offset="1" style="stop-color:#2300C1"/>
					</linearGradient>
					<path style="opacity:0.5;fill:url(#SVGID_00000101789381875990897600000004454799831478400691_);" d="M9.943,5.617
						C9.008,6.691,8.604,8.191,9,9.669c0.396,1.479,1.496,2.574,2.842,3.037L9.943,5.617z"/>
				</g>
				<g style="opacity:0.8;">
					
						<linearGradient id="SVGID_00000019662566108241426520000005253448500449221507_" gradientUnits="userSpaceOnUse" x1="-6.9101" y1="78.1125" x2="-3.1121" y2="89.1763" gradientTransform="matrix(0.7071 -0.7071 0.7071 0.7071 -45.6937 -52.2686)">
						<stop  offset="0" style="stop-color:#FFAEFF"/>
						<stop  offset="0.3075" style="stop-color:#FF29FF"/>
						<stop  offset="0.7785" style="stop-color:#FF00FF"/>
						<stop  offset="0.9695" style="stop-color:#FF00FF"/>
						<stop  offset="1" style="stop-color:#FF00FF"/>
					</linearGradient>
					<path style="fill:url(#SVGID_00000019662566108241426520000005253448500449221507_);" d="M7.859,11.523
						c1.094,1.092,2.617,1.492,4.027,1.201c0.291-1.41-0.107-2.933-1.201-4.027C9.591,7.603,8.066,7.203,6.656,7.494
						C6.366,8.904,6.766,10.428,7.859,11.523z"/>
					
						<linearGradient id="SVGID_00000072975953050355310450000006587498000701697715_" gradientUnits="userSpaceOnUse" x1="-8.9321" y1="82.8852" x2="-4.4407" y2="82.9956" gradientTransform="matrix(0.7071 -0.7071 0.7071 0.7071 -45.6937 -52.2686)">
						<stop  offset="0" style="stop-color:#FFAEFF"/>
						<stop  offset="0.3075" style="stop-color:#FF29FF"/>
						<stop  offset="0.7785" style="stop-color:#FF00FF"/>
						<stop  offset="0.9695" style="stop-color:#FF00FF"/>
						<stop  offset="1" style="stop-color:#FF00FF"/>
					</linearGradient>
					<path style="opacity:0.5;fill:url(#SVGID_00000072975953050355310450000006587498000701697715_);" d="M6.65,7.542
						c-0.273,1.396,0.127,2.898,1.209,3.981c1.082,1.081,2.582,1.48,3.98,1.208L6.65,7.542z"/>
				</g>
			</g>
			<g>
				<g>
					
						<linearGradient id="SVGID_00000100384523267371099900000005244376602382919614_" gradientUnits="userSpaceOnUse" x1="-0.4888" y1="-118.1848" x2="3.3084" y2="-107.1232" gradientTransform="matrix(0.4244 -0.9055 0.9055 0.4244 110.6525 60.3175)">
						<stop  offset="0" style="stop-color:#FFD973"/>
						<stop  offset="0.3075" style="stop-color:#FF8273"/>
						<stop  offset="0.7785" style="stop-color:#870073"/>
						<stop  offset="0.9695" style="stop-color:#8A0073"/>
						<stop  offset="1" style="stop-color:#8B0073"/>
					</linearGradient>
					<path style="fill:url(#SVGID_00000100384523267371099900000005244376602382919614_);" d="M7.689,12.964
						c1.402,0.656,2.971,0.514,4.197-0.24c-0.205-1.425-1.1-2.723-2.498-3.378C7.986,8.688,6.418,8.832,5.19,9.585
						C5.396,11.011,6.289,12.308,7.689,12.964z"/>
					
						<linearGradient id="SVGID_00000016068180260432430470000011618395529822082202_" gradientUnits="userSpaceOnUse" x1="-2.5129" y1="-113.4134" x2="1.9824" y2="-113.3029" gradientTransform="matrix(0.4244 -0.9055 0.9055 0.4244 110.6525 60.3175)">
						<stop  offset="0" style="stop-color:#FFD973"/>
						<stop  offset="0.3075" style="stop-color:#FF8273"/>
						<stop  offset="0.7785" style="stop-color:#870073"/>
						<stop  offset="0.9695" style="stop-color:#8A0073"/>
						<stop  offset="1" style="stop-color:#8B0073"/>
					</linearGradient>
					<path style="opacity:0.5;fill:url(#SVGID_00000016068180260432430470000011618395529822082202_);" d="M5.2,9.634
						c0.22,1.404,1.105,2.681,2.489,3.33c1.387,0.648,2.935,0.514,4.155-0.219L5.2,9.634z"/>
				</g>
				<g style="opacity:0.8;">
					
						<linearGradient id="SVGID_00000160885367647288337660000013771695988221248413_" gradientUnits="userSpaceOnUse" x1="53.3327" y1="-57.2094" x2="57.1304" y2="-46.1464" gradientTransform="matrix(-0.0852 -0.9964 0.9964 -0.0852 65.0476 63.3827)">
						<stop  offset="0" style="stop-color:#A0FFFF"/>
						<stop  offset="0.3075" style="stop-color:#23C0FF"/>
						<stop  offset="0.7785" style="stop-color:#2300FF"/>
						<stop  offset="0.9695" style="stop-color:#2300FF"/>
						<stop  offset="1" style="stop-color:#2300FF"/>
					</linearGradient>
					<path style="fill:url(#SVGID_00000160885367647288337660000013771695988221248413_);" d="M8.372,15.029
						c1.542-0.132,2.828-1.04,3.515-2.306c-0.892-1.131-2.312-1.808-3.853-1.675c-1.541,0.131-2.829,1.04-3.516,2.306
						C5.409,14.485,6.832,15.161,8.372,15.029z"/>
					
						<linearGradient id="SVGID_00000101796813477502107880000010870593867136362906_" gradientUnits="userSpaceOnUse" x1="51.312" y1="-52.4369" x2="55.8022" y2="-52.3265" gradientTransform="matrix(-0.0852 -0.9964 0.9964 -0.0852 65.0476 63.3827)">
						<stop  offset="0" style="stop-color:#A0FFFF"/>
						<stop  offset="0.3075" style="stop-color:#23C0FF"/>
						<stop  offset="0.7785" style="stop-color:#2300FF"/>
						<stop  offset="0.9695" style="stop-color:#2300FF"/>
						<stop  offset="1" style="stop-color:#2300FF"/>
					</linearGradient>
					<path style="opacity:0.5;fill:url(#SVGID_00000101796813477502107880000010870593867136362906_);" d="M4.551,13.391
						c0.893,1.107,2.298,1.769,3.821,1.639c1.526-0.13,2.798-1.021,3.489-2.265L4.551,13.391z"/>
				</g>
				<g>
					
						<linearGradient id="SVGID_00000127766224789897164980000011068950300179169416_" gradientUnits="userSpaceOnUse" x1="69.235" y1="22.8066" x2="73.0325" y2="33.8689" gradientTransform="matrix(-0.572 -0.8203 0.8203 -0.572 26.7148 88.8275)">
						<stop  offset="0" style="stop-color:#23FFFF"/>
						<stop  offset="0.3075" style="stop-color:#23C0FF"/>
						<stop  offset="0.7785" style="stop-color:#2300B7"/>
						<stop  offset="0.9207" style="stop-color:#2300BA"/>
						<stop  offset="1" style="stop-color:#2300C1"/>
					</linearGradient>
					<path style="fill:url(#SVGID_00000127766224789897164980000011068950300179169416_);" d="M9.996,16.479
						c1.27-0.886,1.93-2.314,1.891-3.755c-1.336-0.534-2.906-0.407-4.176,0.477c-1.268,0.884-1.93,2.314-1.891,3.754
						C7.157,17.487,8.729,17.362,9.996,16.479z"/>
					
						<linearGradient id="SVGID_00000063611119944808288760000002789377419754441877_" gradientUnits="userSpaceOnUse" x1="67.2137" y1="27.5776" x2="71.7035" y2="27.688" gradientTransform="matrix(-0.572 -0.8203 0.8203 -0.572 26.7148 88.8275)">
						<stop  offset="0" style="stop-color:#23FFFF"/>
						<stop  offset="0.3075" style="stop-color:#23C0FF"/>
						<stop  offset="0.7785" style="stop-color:#2300B7"/>
						<stop  offset="0.9207" style="stop-color:#2300BA"/>
						<stop  offset="1" style="stop-color:#2300C1"/>
					</linearGradient>
					<path style="opacity:0.5;fill:url(#SVGID_00000063611119944808288760000002789377419754441877_);" d="M5.865,16.97
						c1.328,0.514,2.877,0.382,4.131-0.491c1.256-0.876,1.912-2.283,1.89-3.706L5.865,16.97z"/>
				</g>
			</g>
			
				<ellipse transform="matrix(0.9871 -0.1602 0.1602 0.9871 -1.9658 2.0749)" style="fill:#FFFFFF;" cx="11.887" cy="13.23" rx="3.937" ry="3.938"/>
		</g>
		<g>
			<g>
				<path style="fill:#4D4D4D;" d="M11.227,13.354c0.026,0.018,0.048,0.042,0.064,0.068c0.017,0.029,0.026,0.062,0.026,0.098
					c0,0.046-0.011,0.086-0.029,0.115c-0.02,0.031-0.046,0.057-0.081,0.073c-0.038,0.021-0.082,0.032-0.131,0.041
					c-0.05,0.009-0.107,0.014-0.174,0.014H10.44v-0.05c0.013-0.001,0.029-0.004,0.049-0.006c0.021-0.003,0.033-0.005,0.041-0.009
					c0.016-0.006,0.027-0.015,0.032-0.024c0.006-0.011,0.009-0.024,0.009-0.041v-0.628c0-0.014-0.003-0.027-0.008-0.037
					c-0.004-0.008-0.015-0.018-0.033-0.025c-0.013-0.006-0.027-0.012-0.045-0.014c-0.017-0.005-0.032-0.008-0.045-0.009v-0.048
					h0.483c0.123,0,0.211,0.016,0.266,0.049c0.053,0.034,0.08,0.082,0.08,0.148c0,0.031-0.006,0.057-0.018,0.08
					c-0.012,0.023-0.029,0.043-0.053,0.059c-0.021,0.016-0.045,0.03-0.073,0.041c-0.027,0.011-0.06,0.021-0.091,0.029v0.011
					c0.031,0.002,0.066,0.01,0.102,0.022C11.17,13.322,11.202,13.335,11.227,13.354z M11.024,13.085
					c0-0.049-0.013-0.089-0.041-0.115c-0.028-0.027-0.069-0.043-0.126-0.043c-0.008,0-0.018,0.002-0.03,0.002
					c-0.014,0-0.023,0.001-0.032,0.001v0.332h0.032c0.067,0,0.117-0.016,0.149-0.049C11.009,13.182,11.024,13.14,11.024,13.085z
					 M11.069,13.512c0-0.061-0.019-0.107-0.056-0.143c-0.036-0.031-0.09-0.049-0.159-0.049c-0.008,0-0.018,0-0.03,0.002
					c-0.015,0-0.023,0.001-0.029,0.001v0.326c0.003,0.014,0.015,0.029,0.034,0.039c0.021,0.011,0.044,0.016,0.072,0.016
					c0.049,0,0.09-0.016,0.121-0.051C11.053,13.621,11.069,13.574,11.069,13.512z"/>
				<path style="fill:#4D4D4D;" d="M12.226,13.749l-0.299,0.017l-0.011-0.008v-0.082h-0.003c-0.014,0.013-0.028,0.026-0.042,0.037
					c-0.013,0.012-0.029,0.024-0.049,0.035c-0.021,0.012-0.04,0.021-0.06,0.024c-0.019,0.006-0.047,0.008-0.083,0.008
					c-0.063,0-0.111-0.02-0.144-0.058c-0.035-0.036-0.052-0.091-0.052-0.162v-0.281c0-0.016-0.003-0.03-0.009-0.039
					c-0.006-0.012-0.015-0.019-0.025-0.027c-0.008-0.007-0.018-0.012-0.032-0.015c-0.014-0.002-0.025-0.003-0.036-0.003v-0.047
					l0.303-0.017l0.008,0.01v0.418c0,0.043,0.008,0.074,0.024,0.095c0.017,0.021,0.039,0.03,0.067,0.03
					c0.03,0,0.057-0.006,0.08-0.023c0.024-0.014,0.041-0.03,0.053-0.048v-0.34c0-0.014-0.004-0.025-0.008-0.036
					c-0.007-0.014-0.013-0.022-0.024-0.029c-0.008-0.006-0.018-0.009-0.032-0.01c-0.015-0.001-0.029-0.002-0.044-0.002v-0.047
					l0.307-0.017l0.009,0.01v0.484c0,0.016,0.003,0.026,0.009,0.037c0.005,0.011,0.015,0.019,0.025,0.026
					c0.008,0.006,0.018,0.009,0.03,0.011c0.013,0.003,0.025,0.003,0.038,0.004V13.749z"/>
				<path style="fill:#4D4D4D;" d="M12.567,13.784c-0.04,0-0.079-0.008-0.118-0.02c-0.039-0.011-0.069-0.025-0.091-0.037
					l-0.02,0.043h-0.047l-0.009-0.235h0.046c0.006,0.019,0.017,0.04,0.03,0.065c0.016,0.023,0.032,0.042,0.051,0.061
					c0.021,0.019,0.042,0.036,0.068,0.05c0.024,0.012,0.052,0.018,0.08,0.018c0.038,0,0.066-0.007,0.085-0.021
					c0.019-0.016,0.029-0.037,0.029-0.068c0-0.017-0.005-0.03-0.013-0.043c-0.009-0.011-0.021-0.021-0.035-0.027
					c-0.017-0.009-0.034-0.016-0.054-0.02c-0.019-0.006-0.044-0.014-0.071-0.022c-0.029-0.01-0.054-0.019-0.074-0.025
					c-0.02-0.009-0.041-0.023-0.063-0.041c-0.019-0.017-0.033-0.038-0.046-0.059c-0.012-0.022-0.017-0.051-0.017-0.082
					c0-0.059,0.025-0.107,0.075-0.144c0.049-0.037,0.113-0.054,0.194-0.054c0.038,0,0.073,0.002,0.106,0.011
					c0.031,0.007,0.059,0.016,0.08,0.023l0.015-0.034h0.047l0.01,0.213h-0.044c-0.015-0.044-0.04-0.08-0.076-0.113
					c-0.034-0.031-0.072-0.047-0.113-0.047c-0.033,0-0.059,0.007-0.076,0.02c-0.02,0.012-0.028,0.03-0.028,0.055
					c0,0.032,0.013,0.057,0.041,0.071c0.026,0.013,0.064,0.026,0.112,0.039c0.075,0.02,0.13,0.045,0.165,0.079
					c0.034,0.033,0.052,0.074,0.052,0.126c0,0.07-0.027,0.122-0.081,0.158C12.725,13.764,12.653,13.784,12.567,13.784z"/>
				<path style="fill:#4D4D4D;" d="M13.333,13.763h-0.397v-0.047c0.011-0.002,0.022-0.002,0.031-0.003
					c0.011-0.001,0.019-0.004,0.027-0.007c0.014-0.004,0.023-0.012,0.028-0.023c0.006-0.008,0.009-0.022,0.009-0.036v-0.365
					c0-0.016-0.004-0.028-0.011-0.039c-0.007-0.012-0.015-0.021-0.025-0.027c-0.007-0.004-0.019-0.009-0.033-0.015
					c-0.016-0.004-0.03-0.006-0.042-0.006v-0.047l0.308-0.017l0.009,0.01v0.499c0,0.014,0.003,0.026,0.01,0.038
					c0.007,0.01,0.015,0.017,0.026,0.021c0.009,0.004,0.018,0.008,0.027,0.01c0.01,0.004,0.021,0.005,0.032,0.007V13.763z
					 M13.241,12.905c0,0.031-0.013,0.059-0.037,0.081c-0.024,0.021-0.053,0.034-0.086,0.034c-0.035,0-0.064-0.013-0.088-0.034
					c-0.025-0.022-0.037-0.05-0.037-0.081c0-0.031,0.012-0.059,0.037-0.082c0.023-0.021,0.053-0.034,0.088-0.034
					c0.033,0,0.063,0.014,0.087,0.034C13.229,12.847,13.241,12.874,13.241,12.905z"/>
				<path style="fill:#4D4D4D;" d="M14.219,13.763h-0.377v-0.047c0.008-0.002,0.018-0.002,0.029-0.003
					c0.012-0.001,0.019-0.004,0.025-0.007c0.01-0.004,0.016-0.01,0.02-0.019c0.003-0.01,0.005-0.024,0.005-0.04v-0.294
					c0-0.041-0.008-0.075-0.024-0.097c-0.015-0.019-0.038-0.033-0.069-0.033c-0.017,0-0.031,0.003-0.046,0.008
					c-0.015,0.007-0.029,0.015-0.043,0.023c-0.012,0.009-0.022,0.019-0.029,0.025c-0.007,0.009-0.014,0.018-0.018,0.023v0.338
					c0,0.015,0.002,0.025,0.005,0.037c0.005,0.01,0.012,0.017,0.021,0.021c0.007,0.004,0.016,0.008,0.026,0.01
					c0.01,0.004,0.02,0.005,0.029,0.007v0.047H13.39v-0.047c0.011-0.002,0.023-0.003,0.032-0.003
					c0.012-0.001,0.021-0.005,0.027-0.007c0.013-0.004,0.023-0.012,0.028-0.02c0.005-0.011,0.007-0.024,0.007-0.039v-0.365
					c0-0.013-0.003-0.025-0.01-0.039c-0.006-0.012-0.016-0.023-0.026-0.03c-0.007-0.006-0.017-0.011-0.028-0.013
					c-0.012-0.003-0.024-0.005-0.038-0.005v-0.047l0.299-0.017l0.011,0.01v0.091h0.002c0.011-0.01,0.026-0.023,0.042-0.036
					c0.017-0.016,0.033-0.026,0.047-0.038c0.016-0.009,0.035-0.018,0.061-0.025c0.025-0.007,0.053-0.009,0.081-0.009
					c0.068,0,0.119,0.018,0.153,0.058c0.034,0.037,0.052,0.089,0.052,0.154v0.307c0,0.015,0.001,0.029,0.006,0.037
					c0.005,0.01,0.014,0.018,0.025,0.023c0.008,0.001,0.016,0.005,0.025,0.007c0.01,0.004,0.021,0.005,0.033,0.007V13.763z"/>
				<path style="fill:#4D4D4D;" d="M14.953,13.612c-0.016,0.023-0.034,0.045-0.054,0.068c-0.021,0.018-0.045,0.038-0.07,0.052
					c-0.028,0.017-0.057,0.028-0.086,0.037c-0.028,0.009-0.062,0.013-0.098,0.013c-0.063,0-0.116-0.01-0.161-0.027
					c-0.046-0.018-0.082-0.041-0.111-0.071c-0.029-0.028-0.052-0.065-0.065-0.106c-0.015-0.039-0.022-0.084-0.022-0.132
					c0-0.041,0.008-0.082,0.024-0.122c0.016-0.039,0.037-0.073,0.066-0.103c0.028-0.029,0.064-0.054,0.107-0.072
					c0.043-0.019,0.093-0.028,0.145-0.028c0.06,0,0.107,0.008,0.145,0.021c0.038,0.014,0.068,0.034,0.094,0.06
					c0.023,0.022,0.041,0.052,0.052,0.084c0.011,0.034,0.017,0.066,0.017,0.103v0.039h-0.425c0,0.087,0.017,0.15,0.049,0.196
					c0.033,0.047,0.088,0.067,0.158,0.067c0.04,0,0.075-0.01,0.106-0.033c0.031-0.021,0.058-0.048,0.081-0.082L14.953,13.612z
					 M14.713,13.373c0-0.025-0.001-0.051-0.004-0.078c-0.003-0.025-0.008-0.047-0.013-0.064c-0.008-0.019-0.018-0.034-0.03-0.044
					c-0.013-0.011-0.028-0.016-0.047-0.016c-0.032,0-0.058,0.018-0.076,0.049c-0.021,0.033-0.03,0.086-0.032,0.155L14.713,13.373z"
					/>
				<path style="fill:#4D4D4D;" d="M15.303,13.784c-0.039,0-0.08-0.008-0.119-0.02c-0.038-0.011-0.068-0.025-0.09-0.037
					l-0.019,0.043h-0.049l-0.008-0.235h0.046c0.006,0.019,0.016,0.04,0.031,0.065c0.015,0.023,0.031,0.042,0.05,0.061
					c0.019,0.019,0.042,0.036,0.067,0.05c0.026,0.012,0.053,0.018,0.081,0.018c0.038,0,0.067-0.007,0.086-0.021
					c0.018-0.016,0.027-0.037,0.027-0.068c0-0.017-0.004-0.03-0.013-0.043c-0.008-0.011-0.019-0.021-0.035-0.027
					c-0.016-0.009-0.033-0.016-0.053-0.02c-0.019-0.006-0.043-0.014-0.072-0.022c-0.028-0.01-0.053-0.019-0.072-0.025
					c-0.021-0.009-0.041-0.023-0.063-0.041c-0.019-0.017-0.034-0.038-0.046-0.059c-0.011-0.022-0.017-0.051-0.017-0.082
					c0-0.059,0.024-0.107,0.074-0.144c0.05-0.037,0.115-0.054,0.195-0.054c0.038,0,0.073,0.002,0.104,0.011
					c0.031,0.007,0.059,0.016,0.081,0.023l0.014-0.034h0.047l0.011,0.213h-0.043c-0.017-0.044-0.041-0.08-0.076-0.113
					c-0.036-0.031-0.075-0.047-0.115-0.047c-0.032,0-0.058,0.007-0.076,0.02c-0.019,0.012-0.027,0.03-0.027,0.055
					c0,0.032,0.015,0.057,0.04,0.071c0.027,0.013,0.064,0.026,0.114,0.039c0.074,0.02,0.128,0.045,0.164,0.079
					c0.033,0.033,0.051,0.074,0.051,0.126c0,0.07-0.025,0.122-0.08,0.158C15.46,13.764,15.39,13.784,15.303,13.784z"/>
				<path style="fill:#4D4D4D;" d="M15.964,13.784c-0.043,0-0.082-0.008-0.121-0.02c-0.038-0.011-0.069-0.025-0.09-0.037
					l-0.019,0.043h-0.048l-0.008-0.235h0.045c0.007,0.019,0.017,0.04,0.031,0.065c0.015,0.023,0.032,0.042,0.051,0.061
					c0.019,0.019,0.041,0.036,0.066,0.05c0.026,0.012,0.054,0.018,0.082,0.018c0.038,0,0.067-0.007,0.087-0.021
					c0.018-0.016,0.025-0.037,0.025-0.068c0-0.017-0.002-0.03-0.012-0.043c-0.008-0.011-0.019-0.021-0.035-0.027
					c-0.016-0.009-0.033-0.016-0.053-0.02c-0.021-0.006-0.045-0.014-0.071-0.022c-0.029-0.01-0.054-0.019-0.074-0.025
					c-0.021-0.009-0.041-0.023-0.063-0.041c-0.019-0.017-0.034-0.038-0.046-0.059c-0.012-0.022-0.017-0.051-0.017-0.082
					c0-0.059,0.024-0.107,0.074-0.144c0.05-0.037,0.114-0.054,0.196-0.054c0.037,0,0.072,0.002,0.106,0.011
					c0.031,0.007,0.059,0.016,0.08,0.023l0.012-0.034h0.049l0.01,0.213h-0.045c-0.014-0.044-0.039-0.08-0.074-0.113
					c-0.037-0.031-0.074-0.047-0.115-0.047c-0.032,0-0.058,0.007-0.076,0.02c-0.017,0.012-0.027,0.03-0.027,0.055
					c0,0.032,0.014,0.057,0.041,0.071c0.026,0.013,0.064,0.026,0.113,0.039c0.074,0.02,0.129,0.045,0.164,0.079
					c0.035,0.033,0.053,0.074,0.053,0.126c0,0.07-0.027,0.122-0.082,0.158C16.12,13.764,16.05,13.784,15.964,13.784z"/>
			</g>
			<g>
				<path style="fill:#4D4D4D;" d="M17.687,12.92c-0.012,0.001-0.027,0.002-0.049,0.006c-0.021,0.004-0.043,0.014-0.059,0.026
					c-0.016,0.01-0.027,0.029-0.033,0.059c-0.008,0.026-0.01,0.066-0.01,0.12v0.635h-0.113l-0.555-0.689v0.419
					c0,0.053,0.004,0.09,0.012,0.119c0.006,0.025,0.018,0.045,0.033,0.059c0.012,0.009,0.029,0.018,0.053,0.024
					c0.025,0.008,0.045,0.011,0.059,0.015v0.05h-0.381v-0.05c0.016-0.001,0.033-0.005,0.057-0.01
					c0.02-0.005,0.037-0.012,0.053-0.022c0.016-0.011,0.027-0.031,0.033-0.056c0.006-0.024,0.008-0.066,0.008-0.123v-0.421
					c0-0.022-0.002-0.042-0.008-0.061c-0.008-0.019-0.017-0.035-0.031-0.049c-0.014-0.013-0.031-0.025-0.051-0.032
					c-0.019-0.01-0.041-0.015-0.064-0.019v-0.049h0.334l0.488,0.602v-0.338c0-0.053-0.004-0.093-0.01-0.118
					c-0.008-0.026-0.02-0.046-0.035-0.058c-0.012-0.01-0.029-0.02-0.055-0.025c-0.023-0.008-0.043-0.014-0.057-0.015v-0.048h0.381
					V12.92z"/>
				<path style="fill:#4D4D4D;" d="M18.454,13.749c-0.019,0.008-0.041,0.015-0.064,0.022c-0.025,0.006-0.053,0.01-0.08,0.01
					c-0.053,0-0.09-0.008-0.113-0.023c-0.025-0.018-0.041-0.038-0.049-0.065h-0.006c-0.014,0.014-0.027,0.026-0.039,0.036
					c-0.014,0.01-0.029,0.019-0.043,0.026c-0.02,0.009-0.039,0.016-0.059,0.019c-0.018,0.005-0.043,0.008-0.076,0.008
					c-0.047,0-0.09-0.014-0.125-0.044c-0.033-0.029-0.051-0.065-0.051-0.113c0-0.028,0.004-0.051,0.012-0.069
					c0.008-0.019,0.018-0.037,0.031-0.052c0.014-0.014,0.027-0.023,0.045-0.032c0.016-0.009,0.035-0.017,0.055-0.026
					c0.037-0.013,0.082-0.027,0.135-0.041c0.053-0.016,0.092-0.028,0.115-0.041v-0.061c0-0.011,0-0.023-0.002-0.04
					c-0.002-0.017-0.004-0.031-0.01-0.046c-0.008-0.012-0.016-0.021-0.027-0.032c-0.014-0.009-0.029-0.013-0.051-0.013
					c-0.018,0-0.033,0.003-0.047,0.008c-0.012,0.005-0.021,0.011-0.029,0.016c0.002,0.007,0.006,0.021,0.012,0.038
					c0.006,0.016,0.008,0.033,0.008,0.049c0,0.007-0.002,0.016-0.006,0.027c-0.004,0.011-0.008,0.019-0.016,0.025
					c-0.01,0.009-0.021,0.014-0.031,0.019c-0.014,0.005-0.031,0.007-0.057,0.007c-0.035,0-0.061-0.008-0.08-0.025
					c-0.018-0.017-0.027-0.039-0.027-0.066c0-0.022,0.01-0.046,0.029-0.063c0.018-0.017,0.041-0.033,0.068-0.046
					c0.025-0.012,0.057-0.022,0.09-0.029c0.035-0.007,0.066-0.011,0.096-0.011c0.041,0,0.078,0.004,0.111,0.008
					c0.033,0.004,0.064,0.014,0.092,0.029c0.025,0.016,0.047,0.038,0.063,0.064c0.014,0.027,0.021,0.064,0.021,0.108
					c0,0.049,0,0.104-0.002,0.169c-0.002,0.065-0.002,0.107-0.002,0.127c0,0.019,0.002,0.032,0.008,0.045
					c0.006,0.012,0.014,0.019,0.025,0.025c0.008,0.002,0.02,0.006,0.033,0.006c0.016,0.001,0.031,0.001,0.043,0.001V13.749z
					 M18.142,13.421c-0.023,0.009-0.047,0.017-0.068,0.028c-0.023,0.01-0.043,0.022-0.057,0.032
					c-0.016,0.012-0.027,0.026-0.037,0.046c-0.01,0.017-0.014,0.038-0.014,0.063c0,0.034,0.008,0.057,0.024,0.072
					c0.014,0.016,0.033,0.022,0.053,0.022c0.025,0,0.043-0.003,0.059-0.013c0.014-0.013,0.027-0.023,0.039-0.036L18.142,13.421z"/>
				<path style="fill:#4D4D4D;" d="M19.749,13.763h-0.373v-0.047c0.01-0.002,0.02-0.003,0.027-0.003
					c0.012-0.001,0.02-0.004,0.025-0.007c0.01-0.004,0.016-0.01,0.018-0.02c0.004-0.011,0.004-0.024,0.004-0.039v-0.293
					c0-0.042-0.006-0.076-0.023-0.098c-0.014-0.019-0.037-0.033-0.064-0.033c-0.018,0-0.035,0.003-0.049,0.01
					c-0.014,0.007-0.027,0.014-0.039,0.02c-0.012,0.01-0.022,0.019-0.027,0.027c-0.008,0.008-0.012,0.016-0.018,0.021v0.338
					c0,0.015,0.002,0.026,0.006,0.037c0.004,0.01,0.01,0.017,0.02,0.021c0.006,0.004,0.014,0.008,0.021,0.01
					c0.01,0.004,0.017,0.005,0.027,0.007v0.047h-0.355v-0.047c0.008-0.002,0.018-0.002,0.029-0.003
					c0.01-0.001,0.018-0.004,0.023-0.007c0.01-0.004,0.014-0.01,0.018-0.019c0.002-0.01,0.004-0.024,0.004-0.04v-0.293
					c0-0.042-0.008-0.076-0.023-0.098c-0.016-0.019-0.037-0.033-0.066-0.033c-0.018,0-0.033,0.003-0.047,0.01
					c-0.014,0.007-0.027,0.014-0.039,0.02c-0.012,0.01-0.022,0.019-0.029,0.027c-0.006,0.008-0.012,0.016-0.016,0.021v0.338
					c0,0.015,0.002,0.025,0.006,0.037c0.002,0.01,0.01,0.017,0.02,0.021c0.006,0.004,0.014,0.008,0.023,0.01
					c0.008,0.004,0.018,0.005,0.027,0.007v0.047h-0.377v-0.047c0.012-0.002,0.021-0.002,0.033-0.003
					c0.01-0.001,0.018-0.004,0.025-0.007c0.014-0.004,0.023-0.012,0.029-0.023c0.004-0.008,0.006-0.022,0.006-0.036v-0.365
					c0-0.013-0.002-0.026-0.01-0.04c-0.008-0.011-0.016-0.021-0.025-0.029c-0.008-0.006-0.018-0.011-0.027-0.013
					c-0.014-0.003-0.025-0.005-0.039-0.005v-0.047l0.299-0.017l0.01,0.01v0.088h0.002c0.012-0.011,0.025-0.022,0.043-0.037
					c0.016-0.015,0.029-0.025,0.045-0.034c0.016-0.011,0.035-0.019,0.059-0.025c0.025-0.007,0.051-0.009,0.08-0.009
					c0.047,0,0.088,0.009,0.119,0.028c0.033,0.023,0.055,0.05,0.068,0.085h0.006c0.012-0.013,0.027-0.026,0.045-0.04
					c0.017-0.016,0.033-0.027,0.049-0.039c0.016-0.009,0.037-0.018,0.063-0.025c0.023-0.007,0.051-0.009,0.08-0.009
					c0.064,0,0.111,0.018,0.146,0.054c0.035,0.038,0.051,0.091,0.051,0.159v0.306c0,0.015,0.002,0.029,0.008,0.039
					c0.004,0.008,0.012,0.016,0.023,0.021c0.008,0.001,0.016,0.005,0.025,0.007c0.012,0.004,0.021,0.005,0.035,0.007V13.763z"/>
				<path style="fill:#4D4D4D;" d="M20.483,13.612c-0.016,0.023-0.033,0.045-0.055,0.068c-0.019,0.018-0.043,0.038-0.07,0.052
					c-0.027,0.017-0.057,0.028-0.086,0.037c-0.027,0.009-0.061,0.013-0.098,0.013c-0.061,0-0.115-0.01-0.16-0.027
					c-0.045-0.018-0.082-0.041-0.111-0.071c-0.029-0.028-0.051-0.065-0.066-0.106c-0.014-0.039-0.02-0.084-0.02-0.132
					c0-0.041,0.006-0.082,0.021-0.122c0.017-0.039,0.039-0.073,0.066-0.103c0.029-0.029,0.066-0.054,0.109-0.072
					c0.043-0.019,0.092-0.028,0.145-0.028c0.059,0,0.107,0.008,0.144,0.021c0.037,0.014,0.068,0.034,0.092,0.06
					c0.025,0.022,0.043,0.052,0.055,0.084c0.01,0.034,0.016,0.066,0.016,0.103v0.039h-0.424c0,0.087,0.016,0.15,0.049,0.196
					c0.033,0.047,0.086,0.067,0.156,0.067c0.041,0,0.076-0.01,0.107-0.033c0.031-0.021,0.059-0.048,0.08-0.082L20.483,13.612z
					 M20.243,13.373c0-0.025-0.002-0.051-0.004-0.078c-0.002-0.025-0.008-0.047-0.014-0.064c-0.008-0.019-0.018-0.034-0.029-0.044
					c-0.012-0.011-0.027-0.016-0.047-0.016c-0.031,0-0.059,0.018-0.076,0.049c-0.02,0.033-0.031,0.086-0.031,0.155L20.243,13.373z"
					/>
			</g>
			<g>
				<g>
					<path style="fill:#4D4D4D;" d="M10.698,14.39c0,0.018-0.005,0.028-0.017,0.038c-0.012,0.008-0.024,0.015-0.039,0.015
						c-0.024,0-0.043-0.012-0.055-0.033c-0.011-0.023-0.017-0.047-0.017-0.072c0-0.031,0.005-0.056,0.016-0.076
						c0.011-0.021,0.029-0.031,0.056-0.031c0.015,0,0.027,0.005,0.039,0.015c0.012,0.008,0.017,0.021,0.017,0.035h-0.031
						c-0.001-0.013-0.01-0.019-0.026-0.019c-0.014,0-0.023,0.008-0.029,0.024c-0.006,0.016-0.008,0.032-0.008,0.052
						c0,0.018,0.002,0.035,0.008,0.052c0.006,0.016,0.016,0.026,0.029,0.026c0.017,0,0.025-0.007,0.026-0.024H10.698z"/>
					<path style="fill:#4D4D4D;" d="M11.322,14.336c0,0.026-0.006,0.049-0.017,0.067c-0.014,0.025-0.033,0.039-0.057,0.039
						c-0.024,0-0.042-0.012-0.055-0.033c-0.013-0.023-0.018-0.047-0.018-0.073c0-0.025,0.006-0.049,0.018-0.071
						c0.013-0.024,0.03-0.035,0.055-0.035c0.024,0,0.043,0.013,0.057,0.037C11.316,14.286,11.322,14.309,11.322,14.336z
						 M11.29,14.337c0-0.021-0.002-0.037-0.006-0.048c-0.007-0.02-0.019-0.029-0.035-0.029c-0.013,0-0.021,0.007-0.03,0.017
						c-0.007,0.014-0.011,0.033-0.011,0.06c0,0.021,0.002,0.037,0.008,0.053c0.006,0.018,0.017,0.024,0.033,0.024
						c0.015,0,0.026-0.011,0.033-0.029C11.288,14.371,11.29,14.357,11.29,14.337z"/>
					<path style="fill:#4D4D4D;" d="M11.93,14.442h-0.032v-0.173l-0.029,0.104h-0.024l-0.028-0.104v0.173h-0.032v-0.208h0.048
						l0.024,0.081l0.025-0.081h0.049V14.442z"/>
					<path style="fill:#4D4D4D;" d="M12.535,14.296c0,0.02-0.007,0.037-0.02,0.047c-0.015,0.009-0.031,0.015-0.053,0.015h-0.037
						v0.085h-0.031v-0.208h0.069c0.022,0,0.04,0.005,0.053,0.016C12.528,14.261,12.535,14.276,12.535,14.296z M12.504,14.296
						c0-0.012-0.004-0.02-0.012-0.025c-0.007-0.004-0.018-0.006-0.029-0.006h-0.037v0.063h0.037c0.012,0,0.021-0.002,0.029-0.007
						S12.504,14.308,12.504,14.296z"/>
					<path style="fill:#4D4D4D;" d="M13.146,14.442h-0.031l-0.015-0.061h-0.06l-0.016,0.061h-0.031l0.058-0.208h0.038L13.146,14.442
						z M13.093,14.354l-0.021-0.089l-0.024,0.089H13.093z"/>
					<path style="fill:#4D4D4D;" d="M13.745,14.442h-0.032l-0.075-0.157v0.157h-0.028v-0.208h0.036l0.071,0.149l0.001-0.149h0.027
						V14.442z"/>
					<path style="fill:#4D4D4D;" d="M14.359,14.234l-0.059,0.111v0.097h-0.031v-0.097l-0.059-0.111h0.035l0.039,0.077l0.04-0.077
						H14.359z"/>
				</g>
				<g>
					<path style="fill:#4D4D4D;" d="M14.852,14.384c0,0.017-0.007,0.031-0.02,0.042c-0.014,0.01-0.029,0.017-0.046,0.017
						c-0.017,0-0.031-0.007-0.046-0.017c-0.013-0.008-0.019-0.023-0.019-0.038v-0.006h0.032c0,0.022,0.011,0.032,0.033,0.032
						c0.023,0,0.033-0.011,0.033-0.03c0-0.01-0.004-0.017-0.011-0.022c-0.008-0.005-0.021-0.011-0.035-0.019
						c-0.016-0.007-0.027-0.016-0.033-0.022c-0.01-0.01-0.014-0.02-0.014-0.034c0-0.017,0.006-0.032,0.017-0.042
						c0.014-0.011,0.027-0.016,0.046-0.016c0.015,0,0.029,0.005,0.041,0.015c0.013,0.01,0.019,0.023,0.019,0.036l-0.032,0.005
						c0-0.018-0.009-0.025-0.027-0.025c-0.01,0-0.017,0.001-0.023,0.005c-0.006,0.005-0.009,0.011-0.009,0.021
						c0,0.007,0.002,0.012,0.005,0.017c0.004,0.003,0.01,0.007,0.017,0.01L14.8,14.32c0.018,0.008,0.03,0.018,0.036,0.023
						C14.846,14.354,14.852,14.367,14.852,14.384z"/>
					<path style="fill:#4D4D4D;" d="M15.467,14.442H15.33v-0.208h0.03v0.178h0.106V14.442z"/>
					<path style="fill:#4D4D4D;" d="M16.075,14.336c0,0.026-0.006,0.049-0.018,0.067c-0.012,0.025-0.031,0.039-0.057,0.039
						c-0.023,0-0.041-0.012-0.054-0.033c-0.013-0.023-0.019-0.047-0.019-0.073c0-0.025,0.006-0.049,0.019-0.071
						c0.013-0.024,0.03-0.035,0.054-0.035c0.025,0,0.045,0.013,0.057,0.037C16.069,14.286,16.075,14.309,16.075,14.336z
						 M16.044,14.337c0-0.021-0.002-0.037-0.006-0.048c-0.008-0.02-0.019-0.029-0.037-0.029c-0.012,0-0.021,0.007-0.027,0.017
						c-0.008,0.014-0.013,0.033-0.013,0.06c0,0.021,0.003,0.037,0.009,0.053c0.006,0.018,0.016,0.024,0.031,0.024
						c0.016,0,0.025-0.011,0.035-0.029C16.04,14.371,16.044,14.357,16.044,14.337z"/>
					<path style="fill:#4D4D4D;" d="M16.679,14.429c-0.019,0.01-0.039,0.014-0.06,0.014c-0.027,0-0.049-0.012-0.061-0.03
						c-0.014-0.021-0.02-0.045-0.02-0.076c0-0.033,0.006-0.059,0.02-0.076c0.012-0.021,0.033-0.03,0.065-0.03
						c0.016,0,0.029,0.005,0.039,0.013c0.012,0.009,0.018,0.019,0.018,0.029l-0.031,0.004c-0.002-0.011-0.012-0.016-0.025-0.016
						c-0.02,0-0.033,0.007-0.041,0.019c-0.006,0.013-0.012,0.031-0.012,0.054c0,0.024,0.004,0.043,0.01,0.059
						c0.008,0.016,0.021,0.023,0.043,0.023c0.004,0,0.008,0,0.014-0.002c0.004-0.002,0.008-0.003,0.012-0.003v-0.052h-0.043v-0.03
						h0.074V14.429z"/>
					<path style="fill:#4D4D4D;" d="M17.292,14.442h-0.031l-0.014-0.061h-0.061l-0.014,0.061H17.14l0.057-0.208h0.041L17.292,14.442
						z M17.239,14.354l-0.021-0.089l-0.025,0.089H17.239z"/>
					<path style="fill:#4D4D4D;" d="M17.892,14.442h-0.033l-0.074-0.157v0.157h-0.029v-0.208h0.037l0.07,0.149l0.002-0.149h0.027
						V14.442z"/>
				</g>
				<g>
					<path style="fill:#4D4D4D;" d="M18.495,14.442h-0.031v-0.092h-0.068v0.092h-0.031v-0.208h0.031v0.084h0.068v-0.084h0.031
						V14.442z"/>
					<path style="fill:#4D4D4D;" d="M19.101,14.442h-0.127v-0.208h0.125v0.03h-0.092v0.054h0.08v0.03h-0.08v0.063h0.094V14.442z"/>
					<path style="fill:#4D4D4D;" d="M19.722,14.442h-0.035l-0.047-0.085h-0.027v0.085h-0.029v-0.208h0.061
						c0.045,0,0.066,0.021,0.066,0.062c0,0.03-0.016,0.05-0.041,0.055L19.722,14.442z M19.679,14.295
						c0-0.014-0.004-0.021-0.01-0.024c-0.008-0.004-0.017-0.006-0.033-0.006h-0.023v0.063h0.025
						C19.665,14.327,19.679,14.316,19.679,14.295z"/>
					<path style="fill:#4D4D4D;" d="M20.315,14.442h-0.127v-0.208h0.125v0.03h-0.092v0.054h0.08v0.03h-0.08v0.063h0.094V14.442z"/>
				</g>
			</g>
		</g>
	</g>
</g>
</svg>
